<?xml version="1.0" encoding="UTF-8" standalone="no"?>
<svg width="808px" height="808px" viewBox="0 0 808 808" version="1.1" xmlns="http://www.w3.org/2000/svg" xmlns:xlink="http://www.w3.org/1999/xlink">
    <!-- Generator: Sketch 3.6.1 (26313) - http://www.bohemiancoding.com/sketch -->
    <title>m</title>
    <desc>Created with Sketch.</desc>
    <defs></defs>
    <g id="Page-1" stroke="none" stroke-width="1" fill="none" fill-rule="evenodd">
        <path d="M0.6,404.4 C0.6,346.799712 11.399892,293.733576 33,245.2 C54.600108,196.666424 83.133156,154.666844 118.6,119.2 C156.200188,81.599812 198.99976,52.8001 247,32.8 C296.866916,11.46656 349.13306,0.8 403.8,0.8 C461.400288,0.8 514.53309,11.666558 563.2,33.4 C611.86691,55.133442 653.799824,83.733156 689,119.2 C724.466844,154.400176 753.066558,196.33309 774.8,245 C796.533442,293.66691 807.4,346.799712 807.4,404.4 C807.4,459.06694 796.73344,511.333084 775.4,561.2 C755.3999,608.933572 726.666854,651.599812 689.2,689.2 C651.733146,726.800188 609.00024,755.733232 561,776 C511.399752,797.066772 459.000276,807.6 403.8,807.6 C346.199712,807.6 293.266908,796.800108 245,775.2 C196.733092,753.599892 154.60018,725.066844 118.6,689.6 C83.133156,653.59982 54.600108,611.466908 33,563.2 C11.399892,514.933092 0.6,462.000288 0.6,404.4 L0.6,404.4 Z M80.6,404.4 C80.6,450.800232 89.26658,493.399806 106.6,532.2 C123.93342,571.000194 146.866524,604.533192 175.4,632.8 C203.666808,661.333476 237.199806,684.26658 276,701.6 C314.800194,718.93342 357.399768,727.6 403.8,727.6 C450.200232,727.6 492.866472,718.93342 531.8,701.6 C570.733528,684.26658 604.333192,661.333476 632.6,632.8 C661.133476,604.266524 684.06658,570.600194 701.4,531.8 C718.73342,492.999806 727.4,450.533564 727.4,404.4 C727.4,358.266436 718.666754,315.666862 701.2,276.6 C683.733246,237.533138 660.800142,203.800142 632.4,175.4 C603.999858,146.999858 570.333528,124.13342 531.4,106.8 C492.466472,89.46658 449.933564,80.8 403.8,80.8 C380.066548,80.8 357.000112,83.266642 334.6,88.2 C312.199888,93.133358 291.466762,99.999956 272.4,108.8 C253.333238,117.600044 235.80008,127.533278 219.8,138.6 C203.79992,149.666722 189.000068,161.999932 175.4,175.6 C146.866524,203.866808 123.93342,237.466472 106.6,276.4 C89.26658,315.333528 80.6,357.999768 80.6,404.4 L80.6,404.4 Z M204.6,535.2 L204.6,360 C204.6,343.199916 207.866634,327.46674 214.4,312.8 C220.933366,298.13326 229.399948,285.733384 239.8,275.6 C246.4667,268.9333 253.933292,263.066692 262.2,258 C270.466708,252.933308 279.999946,248.73335 290.8,245.4 C301.600054,242.06665 312.733276,240.4 324.2,240.4 C339.400076,240.4 353.933264,243.266638 367.8,249 C381.666736,254.733362 393.666616,261.999956 403.8,270.8 C413.666716,261.733288 425.466598,254.400028 439.2,248.8 C452.933402,243.199972 467.666588,240.4 483.4,240.4 C515.933496,240.4 544.19988,251.999884 568.2,275.2 C590.600112,298.400116 602.199996,325.466512 603,356.4 L603,535.6 L523,535.6 L523,360 C523,349.066612 519.133372,339.733372 511.4,332 C503.666628,324.266628 494.333388,320.4 483.4,320.4 C472.466612,320.4 463.200038,324.266628 455.6,332 C447.999962,339.733372 444.2,349.066612 444.2,360 L443.8,360 L443.8,535.2 L363.8,535.2 L363.8,360 C363.8,349.066612 359.933372,339.733372 352.2,332 C344.466628,324.266628 335.133388,320.4 324.2,320.4 C313.53328,320.4 304.266706,324.333294 296.4,332.2 C288.533294,340.066706 284.6,349.33328 284.6,360 L284.6,535.2 L204.6,535.2 Z" id="m" fill="#E02038"></path>
    </g>
</svg>